<svg width="27" height="24" viewBox="0 0 27 24" fill="none" xmlns="http://www.w3.org/2000/svg">
<path d="M26.4384 22.3729C23.6183 21.1946 22.0008 18.6689 22.0008 15.4318V13.5809C22.0018 13.2375 21.8821 12.9018 21.657 12.6177C21.432 12.3335 21.1123 12.1141 20.7395 11.9881L17.6256 10.9319C17.3807 10.848 17.1843 10.6844 17.0794 10.477C16.9745 10.2695 16.9696 10.0349 17.0656 9.82437L19.7307 4.14726C19.9116 3.77465 20.0028 3.37459 19.999 2.97105C19.9952 2.5675 19.8964 2.16877 19.7084 1.79872C19.5205 1.42868 19.2474 1.09494 18.9054 0.817482C18.5634 0.540026 18.1596 0.324565 17.7181 0.184C16.8583 -0.0859677 15.9095 -0.0579576 15.0733 0.262078C14.2372 0.582113 13.5797 1.16894 13.2405 1.89784C13.24 1.90212 13.24 1.90642 13.2405 1.9107L10.6129 7.61137C10.5152 7.82227 10.3238 7.99134 10.0808 8.08151C9.83778 8.17167 9.56295 8.17555 9.3166 8.09231L6.13899 6.98367C5.77262 6.85646 5.37029 6.82581 4.98348 6.89565C4.59667 6.96549 4.24298 7.13264 3.96766 7.37571C1.33507 9.69476 2.55636e-05 12.4048 2.55636e-05 15.4308C-0.00689274 18.5274 1.39066 21.5051 3.89766 23.7354C3.99159 23.8196 4.10454 23.8864 4.22963 23.9319C4.35471 23.9774 4.4893 24.0006 4.62519 24H26.0009C26.227 23.9998 26.4462 23.934 26.623 23.8133C26.7998 23.6927 26.9237 23.5242 26.9745 23.3355C27.0252 23.1467 26.9999 22.9488 26.9025 22.774C26.8052 22.5992 26.6416 22.4578 26.4384 22.3729ZM5.39271 8.5754L8.56907 9.67869C8.93572 9.80438 9.32772 9.86681 9.72259 9.86239C10.1175 9.85797 10.5074 9.7868 10.8701 9.65295C11.2328 9.5191 11.5611 9.32521 11.8362 9.08239C12.1112 8.83958 12.3276 8.55263 12.473 8.23799L15.098 2.56089C15.4181 1.90641 16.2818 1.56793 17.0269 1.81108C17.2168 1.87147 17.3905 1.9642 17.5375 2.08368C17.6845 2.20316 17.8017 2.34692 17.882 2.50628C17.9624 2.66563 18.0043 2.83729 18.0051 3.01089C18.0059 3.18449 17.9657 3.35643 17.8869 3.51635L15.2118 9.19239C14.9189 9.82552 14.9312 10.5324 15.246 11.1578C15.5607 11.7831 16.1522 12.2759 16.8906 12.528L20.0007 13.5809V15.4308C20.0007 15.4661 20.0007 15.5015 20.0007 15.5379L3.97141 10.044C4.39756 9.52198 4.87292 9.03082 5.39271 8.5754ZM11.3929 22.2861C9.90401 21.0623 8.84925 19.5027 8.35031 17.7873C8.28078 17.5703 8.11445 17.3855 7.88724 17.2727C7.66004 17.16 7.39018 17.1283 7.13594 17.1845C6.88171 17.2408 6.66349 17.3805 6.52841 17.5734C6.39334 17.7664 6.35224 17.9971 6.414 18.2158C6.85018 19.6915 7.63092 21.0762 8.70908 22.2861H5.0552C3.08286 20.4032 1.99446 17.961 2.00009 15.4308C1.98786 14.0902 2.31765 12.7635 2.96638 11.5436L20.192 17.4478C20.567 19.3758 21.512 21.034 22.9283 22.2851L11.3929 22.2861Z" fill="#FF9E80"/>
</svg>
