<svg width="41" height="33" viewBox="0 0 41 33" fill="none" xmlns="http://www.w3.org/2000/svg">
<path d="M6.6875 27.9229C6.6875 28.8644 7.06525 29.7659 7.73438 30.4287C8.40316 31.0911 9.30827 31.4619 10.25 31.4619H30.75C31.6917 31.4619 32.5968 31.0911 33.2656 30.4287C33.9348 29.7659 34.3125 28.8644 34.3125 27.9229V11.6924H6.6875V27.9229ZM15.375 1C15.4526 1 15.5251 1.03055 15.5771 1.08203C15.6289 1.13326 15.6562 1.20118 15.6562 1.26953V6.3457C15.6562 6.41405 15.6289 6.48197 15.5771 6.5332C15.5251 6.58473 15.4526 6.61523 15.375 6.61523C15.2974 6.61523 15.2249 6.58473 15.1729 6.5332C15.1211 6.48197 15.0938 6.41405 15.0938 6.3457V1.26953C15.0938 1.20118 15.1211 1.13326 15.1729 1.08203C15.2249 1.03055 15.2974 1 15.375 1ZM20.5 1C20.5776 1 20.6501 1.03055 20.7021 1.08203C20.7539 1.13326 20.7812 1.20118 20.7812 1.26953V6.3457C20.7812 6.41405 20.7539 6.48197 20.7021 6.5332C20.6501 6.58473 20.5776 6.61523 20.5 6.61523C20.4224 6.61523 20.3499 6.58473 20.2979 6.5332C20.2461 6.48197 20.2188 6.41405 20.2188 6.3457V1.26953C20.2188 1.20118 20.2461 1.13326 20.2979 1.08203C20.3499 1.03055 20.4224 1 20.5 1ZM25.625 1C25.7026 1 25.7751 1.03055 25.8271 1.08203C25.8789 1.13326 25.9062 1.20118 25.9062 1.26953V6.3457C25.9062 6.41405 25.8789 6.48197 25.8271 6.5332C25.7751 6.58473 25.7026 6.61523 25.625 6.61523C25.5474 6.61523 25.4749 6.58473 25.4229 6.5332C25.3711 6.48197 25.3438 6.41405 25.3438 6.3457V1.26953C25.3438 1.20118 25.3711 1.13326 25.4229 1.08203C25.4749 1.03055 25.5474 1 25.625 1ZM6.125 17.9014L5.72168 17.6016L1.1084 14.1738C1.04921 14.1296 1.01269 14.0658 1.00293 13.998C0.993223 13.9303 1.0106 13.8607 1.05371 13.8037C1.09714 13.7464 1.16363 13.7062 1.24023 13.6953C1.31695 13.6845 1.39429 13.7046 1.4541 13.749L4.52832 16.0332L6.125 17.2197V11.4229C6.12506 11.3546 6.15252 11.2875 6.2041 11.2363C6.25614 11.1848 6.32863 11.1543 6.40625 11.1543H34.5938C34.6714 11.1543 34.7439 11.1848 34.7959 11.2363C34.8475 11.2875 34.8749 11.3546 34.875 11.4229V17.2197L36.4717 16.0332L39.5459 13.749C39.6057 13.7046 39.683 13.6845 39.7598 13.6953C39.8364 13.7062 39.9029 13.7464 39.9463 13.8037C39.9894 13.8607 40.0068 13.9303 39.9971 13.998C39.9873 14.0658 39.9508 14.1296 39.8916 14.1738L35.2783 17.6016L34.875 17.9014V27.9229C34.875 29.0011 34.4425 30.0374 33.6699 30.8027C32.8971 31.5682 31.8469 32 30.75 32H10.25C9.15305 32 8.10294 31.5682 7.33008 30.8027C6.55752 30.0374 6.125 29.0011 6.125 27.9229V17.9014Z" stroke="#FF9E80" stroke-width="2"/>
</svg>
